<svg viewBox="0 0 512 512" xmlns="http://www.w3.org/2000/svg"><g data-name="1"><path d="M149.67 393a95.49 95.49 0 0 1-67.56-163l64.7-64.7a95.65 95.65 0 0 1 135.1 0 95.65 95.65 0 0 1 0 135.11l-64.69 64.69a95.23 95.23 0 0 1-67.55 27.9Zm64.69-225.69A65.29 65.29 0 0 0 168 186.49l-64.7 64.7a65.53 65.53 0 0 0 92.7 92.67l64.7-64.7a65.51 65.51 0 0 0-46.34-111.84Z" fill="#ffffff" class="fill-000000"></path><path d="M295.9 360.71a95 95 0 0 1-24.13-3.1 15 15 0 0 1 7.6-29 65.52 65.52 0 0 0 62.87-17.08l64.7-64.69a65.53 65.53 0 0 0-92.68-92.68l-64.69 64.7a65.84 65.84 0 0 0-17.08 62.89 15 15 0 0 1-29 7.55 95.92 95.92 0 0 1 24.9-91.65l64.69-64.7A95.53 95.53 0 1 1 428.15 268l-64.69 64.69a94.92 94.92 0 0 1-67.56 28.02Z" fill="#ffffff" class="fill-000000"></path></g></svg>